<svg width="1183" height="1004" xmlns="http://www.w3.org/2000/svg" xmlns:xlink="http://www.w3.org/1999/xlink" xml:space="preserve" overflow="hidden"><defs><clipPath id="clip0"><rect x="1608" y="705" width="1183" height="1004"/></clipPath><clipPath id="clip1"><rect x="1608" y="705" width="1183" height="1004"/></clipPath></defs><g clip-path="url(#clip0)" transform="translate(-1608 -705)"><g clip-path="url(#clip1)"><path d="M2331.6 741.099C2331.75 723.045 2346.5 708.525 2364.55 708.668L2495.31 709.702C2513.36 709.845 2527.88 724.596 2527.74 742.651L2526.69 874.912C2526.55 892.966 2511.8 907.486 2493.75 907.343L2362.99 906.309C2344.93 906.166 2330.41 891.414 2330.56 873.36Z" stroke="#7F7F7F" stroke-width="4.58333" stroke-linecap="butt" stroke-linejoin="miter" stroke-miterlimit="8" stroke-opacity="1" fill="#FFFFFF" fill-rule="evenodd" fill-opacity="1"/><path d="M2093.99 741.099C2094.13 723.045 2108.88 708.525 2126.94 708.668L2257.69 709.702C2275.75 709.845 2290.27 724.596 2290.13 742.651L2289.08 874.912C2288.94 892.966 2274.19 907.486 2256.13 907.343L2125.37 906.309C2107.32 906.166 2092.8 891.414 2092.94 873.36Z" stroke="#7F7F7F" stroke-width="4.58333" stroke-linecap="butt" stroke-linejoin="miter" stroke-miterlimit="8" stroke-opacity="1" fill="#0096FF" fill-rule="evenodd" fill-opacity="1"/><path d="M2331.6 1204.75C2331.75 1186.7 2346.5 1172.18 2364.55 1172.32L2495.31 1173.36C2513.36 1173.5 2527.88 1188.25 2527.74 1206.3L2526.69 1338.56C2526.55 1356.62 2511.8 1371.14 2493.75 1371L2362.99 1369.96C2344.93 1369.82 2330.41 1355.07 2330.56 1337.01Z" stroke="#7F7F7F" stroke-width="4.58333" stroke-linecap="butt" stroke-linejoin="miter" stroke-miterlimit="8" stroke-opacity="1" fill="#FFFFFF" fill-rule="evenodd" fill-opacity="1"/><path d="M2331.6 972.926C2331.75 954.871 2346.5 940.351 2364.55 940.494L2495.31 941.528C2513.36 941.671 2527.88 956.423 2527.74 974.477L2526.69 1106.74C2526.55 1124.79 2511.8 1139.31 2493.75 1139.17L2362.99 1138.14C2344.93 1137.99 2330.41 1123.24 2330.56 1105.19Z" stroke="#7F7F7F" stroke-width="4.58333" stroke-linecap="butt" stroke-linejoin="miter" stroke-miterlimit="8" stroke-opacity="1" fill="#0096FF" fill-rule="evenodd" fill-opacity="1"/><path d="M2093.99 972.928C2094.13 954.874 2108.88 940.354 2126.94 940.497L2257.69 941.531C2275.75 941.674 2290.27 956.425 2290.13 974.48L2289.08 1106.74C2288.94 1124.79 2274.19 1139.31 2256.13 1139.17L2125.37 1138.14C2107.32 1137.99 2092.8 1123.24 2092.94 1105.19Z" stroke="#7F7F7F" stroke-width="4.58333" stroke-linecap="butt" stroke-linejoin="miter" stroke-miterlimit="8" stroke-opacity="1" fill="#0096FF" fill-rule="evenodd" fill-opacity="1"/><path d="M2093.99 1204.75C2094.13 1186.7 2108.88 1172.18 2126.94 1172.32L2257.69 1173.36C2275.75 1173.5 2290.27 1188.25 2290.13 1206.31L2289.08 1338.57C2288.94 1356.62 2274.19 1371.14 2256.13 1371L2125.37 1369.96C2107.32 1369.82 2092.8 1355.07 2092.94 1337.01Z" stroke="#7F7F7F" stroke-width="4.58333" stroke-linecap="butt" stroke-linejoin="miter" stroke-miterlimit="8" stroke-opacity="1" fill="#0096FF" fill-rule="evenodd" fill-opacity="1"/><path d="M1856.37 741.101C1856.52 723.046 1871.27 708.526 1889.32 708.669L2020.08 709.703C2038.14 709.846 2052.66 724.598 2052.51 742.652L2051.47 874.913C2051.32 892.967 2036.57 907.487 2018.52 907.345L1887.76 906.31C1869.71 906.168 1855.19 891.416 1855.33 873.362Z" stroke="#7F7F7F" stroke-width="4.58333" stroke-linecap="butt" stroke-linejoin="miter" stroke-miterlimit="8" stroke-opacity="1" fill="#FFFFFF" fill-rule="evenodd" fill-opacity="1"/><path d="M1856.37 1204.75C1856.52 1186.7 1871.27 1172.18 1889.32 1172.32L2020.08 1173.36C2038.14 1173.5 2052.66 1188.25 2052.51 1206.31L2051.47 1338.57C2051.32 1356.62 2036.57 1371.14 2018.52 1371L1887.76 1369.96C1869.71 1369.82 1855.19 1355.07 1855.33 1337.01Z" stroke="#7F7F7F" stroke-width="4.58333" stroke-linecap="butt" stroke-linejoin="miter" stroke-miterlimit="8" stroke-opacity="1" fill="#FFFFFF" fill-rule="evenodd" fill-opacity="1"/><path d="M1856.37 972.927C1856.52 954.872 1871.27 940.352 1889.32 940.495L2020.08 941.529C2038.14 941.672 2052.66 956.424 2052.51 974.478L2051.47 1106.74C2051.32 1124.79 2036.57 1139.31 2018.52 1139.17L1887.76 1138.14C1869.71 1137.99 1855.19 1123.24 1855.33 1105.19Z" stroke="#7F7F7F" stroke-width="4.58333" stroke-linecap="butt" stroke-linejoin="miter" stroke-miterlimit="8" stroke-opacity="1" fill="#0096FF" fill-rule="evenodd" fill-opacity="1"/><path d="M2140.76 1683.64C2130.74 1684.1 2124.3 1685.21 2121.44 1686.97 2118.57 1688.74 2117.14 1691.17 2117.14 1694.26 2117.14 1699.73 2120.45 1702.46 2127.06 1702.46 2131.55 1702.46 2136.11 1700.6 2140.76 1696.89ZM1852.31 1666.89C1847.93 1666.89 1844.56 1668.43 1842.19 1671.53 1839.83 1674.63 1838.65 1679.11 1838.65 1684.98 1838.65 1690.76 1839.83 1695.2 1842.19 1698.3 1844.56 1701.4 1847.93 1702.94 1852.31 1702.94 1856.69 1702.94 1860.06 1701.4 1862.43 1698.3 1864.79 1695.2 1865.98 1690.76 1865.98 1684.98 1865.98 1672.92 1861.42 1666.89 1852.31 1666.89ZM2592.37 1666.6C2588.29 1666.6 2584.98 1667.82 2582.46 1670.24 2579.93 1672.66 2578.48 1675.99 2578.1 1680.21L2604.83 1680.21C2604.61 1671.14 2600.46 1666.6 2592.37 1666.6ZM2399.75 1666.6C2395.66 1666.6 2392.36 1667.82 2389.83 1670.24 2387.31 1672.66 2385.86 1675.99 2385.48 1680.21L2412.2 1680.21C2411.99 1671.14 2407.84 1666.6 2399.75 1666.6ZM2272.48 1666.6C2268.4 1666.6 2265.09 1667.82 2262.56 1670.24 2260.04 1672.66 2258.59 1675.99 2258.21 1680.21L2284.94 1680.21C2284.72 1671.14 2280.57 1666.6 2272.48 1666.6ZM2512.36 1662.12 2519.45 1662.12 2519.45 1707.75 2512.36 1707.75ZM2458.52 1662.12 2466.22 1662.12 2480.85 1697.74 2495.28 1662.12 2502.7 1662.12 2483.31 1707.75 2477.79 1707.75ZM2429.72 1662.12 2436.82 1662.12 2436.82 1669.15C2442.52 1664.46 2447.77 1662.12 2452.58 1662.12 2454.27 1662.12 2455.98 1662.26 2457.7 1662.53L2457.7 1669.96 2457.42 1669.96C2455.19 1669.42 2452.93 1669.15 2450.65 1669.15 2446.08 1669.15 2441.47 1671.09 2436.82 1674.96L2436.82 1707.75 2429.72 1707.75ZM2041.12 1662.12 2048.21 1662.12 2048.21 1707.75 2041.12 1707.75ZM1800.26 1662.12 1807.35 1662.12 1807.35 1669.15C1813.05 1664.46 1818.31 1662.12 1823.12 1662.12 1824.81 1662.12 1826.51 1662.26 1828.23 1662.53L1828.23 1669.96 1827.95 1669.96C1825.72 1669.42 1823.46 1669.15 1821.18 1669.15 1816.61 1669.15 1812 1671.09 1807.35 1674.96L1807.35 1707.75 1800.26 1707.75ZM2637.42 1661.03C2643.07 1661.03 2648.02 1662.14 2652.3 1664.34L2652.3 1672.18 2652.02 1672.18C2647.31 1668.7 2642.33 1666.97 2637.06 1666.97 2633.81 1666.97 2631.24 1667.57 2629.36 1668.76 2627.48 1669.96 2626.54 1671.62 2626.54 1673.75 2626.54 1675.64 2627.04 1677.08 2628.05 1678.07 2629.06 1679.07 2631.07 1679.94 2634.08 1680.7L2642.99 1682.63C2646.67 1683.44 2649.44 1684.86 2651.29 1686.89 2653.14 1688.93 2654.07 1691.56 2654.07 1694.79 2654.07 1698.96 2652.36 1702.34 2648.95 1704.94 2645.54 1707.54 2640.96 1708.84 2635.21 1708.84 2629.51 1708.84 2624.16 1707.59 2619.16 1705.08L2619.16 1696.85 2619.45 1696.85C2624.87 1700.88 2630.26 1702.9 2635.61 1702.9 2643.11 1702.9 2646.86 1700.53 2646.86 1695.8 2646.86 1693.94 2646.36 1692.5 2645.36 1691.48 2644.37 1690.45 2642.3 1689.58 2639.16 1688.85 2636.52 1688.34 2633.5 1687.68 2630.09 1686.87 2626.67 1686.07 2624.03 1684.65 2622.17 1682.61 2620.3 1680.58 2619.37 1677.98 2619.37 1674.8 2619.37 1670.76 2621 1667.46 2624.28 1664.89 2627.56 1662.32 2631.94 1661.03 2637.42 1661.03ZM2128.31 1661.03C2135.05 1661.03 2139.99 1662.29 2143.12 1664.81 2146.25 1667.32 2147.82 1671.23 2147.82 1676.54L2147.82 1707.75 2140.76 1707.75 2140.76 1702.66C2136.97 1705.41 2133.86 1707.15 2131.41 1707.89 2128.97 1708.63 2126.48 1709 2123.95 1709 2119.9 1709 2116.52 1707.65 2113.84 1704.96 2111.15 1702.27 2109.81 1698.85 2109.81 1694.71 2109.81 1689.4 2111.8 1685.41 2115.79 1682.74 2119.78 1680.06 2128.11 1678.46 2140.76 1677.95L2140.76 1676.58C2140.76 1673.4 2139.82 1671.05 2137.94 1669.53 2136.06 1668.01 2132.76 1667.25 2128.03 1667.25 2123.86 1667.25 2119.23 1668.33 2114.12 1670.48L2113.8 1670.48 2113.8 1663.09C2118.82 1661.72 2123.66 1661.03 2128.31 1661.03ZM1939.16 1661.03C1944.81 1661.03 1949.77 1662.14 1954.04 1664.34L1954.04 1672.18 1953.76 1672.18C1949.05 1668.7 1944.07 1666.97 1938.8 1666.97 1935.55 1666.97 1932.98 1667.57 1931.1 1668.76 1929.22 1669.96 1928.28 1671.62 1928.28 1673.75 1928.28 1675.64 1928.79 1677.08 1929.79 1678.07 1930.8 1679.07 1932.81 1679.94 1935.82 1680.7L1944.73 1682.63C1948.41 1683.44 1951.18 1684.86 1953.03 1686.89 1954.89 1688.93 1955.81 1691.56 1955.81 1694.79 1955.81 1698.96 1954.11 1702.34 1950.69 1704.94 1947.28 1707.54 1942.7 1708.84 1936.95 1708.84 1931.25 1708.84 1925.9 1707.59 1920.9 1705.08L1920.9 1696.85 1921.19 1696.85C1926.62 1700.88 1932 1702.9 1937.35 1702.9 1944.85 1702.9 1948.6 1700.53 1948.6 1695.8 1948.6 1693.94 1948.1 1692.5 1947.11 1691.48 1946.11 1690.45 1944.04 1689.58 1940.9 1688.85 1938.26 1688.34 1935.24 1687.68 1931.83 1686.87 1928.42 1686.07 1925.78 1684.65 1923.91 1682.61 1922.04 1680.58 1921.11 1677.98 1921.11 1674.8 1921.11 1670.76 1922.75 1667.46 1926.02 1664.89 1929.3 1662.32 1933.68 1661.03 1939.16 1661.03ZM1897.89 1661.03C1903.53 1661.03 1908.49 1662.14 1912.76 1664.34L1912.76 1672.18 1912.48 1672.18C1907.78 1668.7 1902.79 1666.97 1897.53 1666.97 1894.27 1666.97 1891.71 1667.57 1889.83 1668.76 1887.95 1669.96 1887 1671.62 1887 1673.75 1887 1675.64 1887.51 1677.08 1888.52 1678.07 1889.52 1679.07 1891.53 1679.94 1894.54 1680.7L1903.45 1682.63C1907.13 1683.44 1909.9 1684.86 1911.75 1686.89 1913.61 1688.93 1914.54 1691.56 1914.54 1694.79 1914.54 1698.96 1912.83 1702.34 1909.42 1704.94 1906 1707.54 1901.42 1708.84 1895.67 1708.84 1889.97 1708.84 1884.63 1707.59 1879.63 1705.08L1879.63 1696.85 1879.91 1696.85C1885.34 1700.88 1890.73 1702.9 1896.07 1702.9 1903.57 1702.9 1907.32 1700.53 1907.32 1695.8 1907.32 1693.94 1906.82 1692.5 1905.83 1691.48 1904.83 1690.45 1902.77 1689.58 1899.62 1688.85 1896.99 1688.34 1893.96 1687.68 1890.55 1686.87 1887.14 1686.07 1884.5 1684.65 1882.63 1682.61 1880.76 1680.58 1879.83 1677.98 1879.83 1674.8 1879.83 1670.76 1881.47 1667.46 1884.75 1664.89 1888.03 1662.32 1892.41 1661.03 1897.89 1661.03ZM2551.78 1660.99C2556.27 1660.99 2561.01 1662.24 2566.01 1664.75L2566.01 1672.66 2565.69 1672.66C2560.66 1668.97 2555.97 1667.13 2551.62 1667.13 2546.97 1667.13 2543.36 1668.68 2540.78 1671.77 2538.2 1674.87 2536.91 1679.28 2536.91 1685.02 2536.91 1690.75 2538.19 1695.12 2540.76 1698.14 2543.32 1701.15 2546.94 1702.66 2551.62 1702.66 2556.11 1702.66 2560.8 1700.84 2565.69 1697.21L2566.01 1697.21 2566.01 1704.96C2560.55 1707.52 2555.8 1708.8 2551.74 1708.8 2544.73 1708.8 2539.28 1706.74 2535.4 1702.62 2531.51 1698.5 2529.57 1692.63 2529.57 1685.02 2529.57 1677.56 2531.57 1671.69 2535.58 1667.41 2539.58 1663.13 2544.98 1660.99 2551.78 1660.99ZM2231.89 1660.99C2236.38 1660.99 2241.12 1662.24 2246.12 1664.75L2246.12 1672.66 2245.8 1672.66C2240.77 1668.97 2236.08 1667.13 2231.73 1667.13 2227.08 1667.13 2223.46 1668.68 2220.88 1671.77 2218.3 1674.87 2217.01 1679.28 2217.01 1685.02 2217.01 1690.75 2218.3 1695.12 2220.86 1698.14 2223.43 1701.15 2227.05 1702.66 2231.73 1702.66 2236.21 1702.66 2240.9 1700.84 2245.8 1697.21L2246.12 1697.21 2246.12 1704.96C2240.66 1707.52 2235.91 1708.8 2231.85 1708.8 2224.83 1708.8 2219.39 1706.74 2215.5 1702.62 2211.62 1698.5 2209.68 1692.63 2209.68 1685.02 2209.68 1677.56 2211.68 1671.69 2215.68 1667.41 2219.69 1663.13 2225.09 1660.99 2231.89 1660.99ZM2592.77 1660.83C2598.79 1660.83 2603.46 1662.63 2606.78 1666.24 2610.1 1669.85 2611.76 1674.99 2611.76 1681.67L2611.76 1685.58 2578.1 1685.58C2578.1 1691.07 2579.59 1695.29 2582.56 1698.24 2585.53 1701.19 2589.63 1702.66 2594.87 1702.66 2600.08 1702.66 2605.3 1700.84 2610.51 1697.21L2610.83 1697.21 2610.83 1704.92C2604.36 1707.51 2599 1708.8 2594.75 1708.8 2587.17 1708.8 2581.29 1706.75 2577.11 1702.64 2572.94 1698.54 2570.85 1692.73 2570.85 1685.22 2570.85 1677.76 2572.85 1671.83 2576.85 1667.43 2580.86 1663.03 2586.16 1660.83 2592.77 1660.83ZM2400.15 1660.83C2406.17 1660.83 2410.84 1662.63 2414.16 1666.24 2417.48 1669.85 2419.14 1674.99 2419.14 1681.67L2419.14 1685.58 2385.48 1685.58C2385.48 1691.07 2386.96 1695.29 2389.93 1698.24 2392.9 1701.19 2397.01 1702.66 2402.25 1702.66 2407.46 1702.66 2412.67 1700.84 2417.89 1697.21L2418.21 1697.21 2418.21 1704.92C2411.73 1707.51 2406.37 1708.8 2402.13 1708.8 2394.55 1708.8 2388.67 1706.75 2384.49 1702.64 2380.31 1698.54 2378.22 1692.73 2378.22 1685.22 2378.22 1677.76 2380.23 1671.83 2384.23 1667.43 2388.23 1663.03 2393.54 1660.83 2400.15 1660.83ZM2272.88 1660.83C2278.9 1660.83 2283.57 1662.63 2286.89 1666.24 2290.21 1669.85 2291.87 1674.99 2291.87 1681.67L2291.87 1685.58 2258.21 1685.58C2258.21 1691.07 2259.69 1695.29 2262.66 1698.24 2265.63 1701.19 2269.74 1702.66 2274.98 1702.66 2280.19 1702.66 2285.41 1700.84 2290.62 1697.21L2290.94 1697.21 2290.94 1704.92C2284.46 1707.51 2279.1 1708.8 2274.86 1708.8 2267.28 1708.8 2261.4 1706.75 2257.22 1702.64 2253.04 1698.54 2250.95 1692.73 2250.95 1685.22 2250.95 1677.76 2252.96 1671.83 2256.96 1667.43 2260.96 1663.03 2266.27 1660.83 2272.88 1660.83ZM2184.36 1660.83C2189.07 1660.83 2192.69 1662.3 2195.25 1665.25 2197.8 1668.2 2199.08 1672.46 2199.08 1678.03L2199.08 1707.75 2191.98 1707.75 2191.98 1682.19C2191.98 1676.27 2191.2 1672.34 2189.64 1670.42 2188.09 1668.5 2185.52 1667.53 2181.95 1667.53 2177.73 1667.53 2173.25 1669.5 2168.52 1673.43L2168.52 1707.75 2161.43 1707.75 2161.43 1662.12 2168.52 1662.12 2168.52 1667.61C2173.87 1663.09 2179.15 1660.83 2184.36 1660.83ZM2084.61 1660.83C2089.32 1660.83 2092.94 1662.3 2095.5 1665.25 2098.05 1668.2 2099.33 1672.46 2099.33 1678.03L2099.33 1707.75 2092.23 1707.75 2092.23 1682.19C2092.23 1676.27 2091.45 1672.34 2089.89 1670.42 2088.33 1668.5 2085.77 1667.53 2082.19 1667.53 2077.98 1667.53 2073.5 1669.5 2068.77 1673.43L2068.77 1707.75 2061.68 1707.75 2061.68 1662.12 2068.77 1662.12 2068.77 1667.61C2074.12 1663.09 2079.4 1660.83 2084.61 1660.83ZM1852.31 1660.83C1858.73 1660.83 1863.84 1662.98 1867.63 1667.29 1871.42 1671.6 1873.31 1677.49 1873.31 1684.98 1873.31 1692.46 1871.43 1698.33 1867.65 1702.6 1863.87 1706.87 1858.76 1709 1852.31 1709 1845.84 1709 1840.72 1706.85 1836.95 1702.56 1833.19 1698.27 1831.31 1692.41 1831.31 1684.98 1831.31 1677.55 1833.21 1671.67 1836.99 1667.33 1840.78 1663 1845.89 1660.83 1852.31 1660.83ZM1993.49 1646.9 2031.82 1646.9 2031.82 1653.44 2000.99 1653.44 2000.99 1671.61 2028.35 1671.61 2028.35 1678.15 2000.99 1678.15 2000.99 1707.75 1993.49 1707.75ZM2349.89 1645.81C2356.66 1645.81 2363.43 1647.3 2370.2 1650.29L2370.2 1659.13 2369.64 1659.13C2364.05 1654.48 2357.46 1652.15 2349.89 1652.15 2345.69 1652.15 2342.31 1653.08 2339.75 1654.94 2337.18 1656.79 2335.9 1659.23 2335.9 1662.24 2335.9 1667.28 2338.83 1670.52 2344.69 1671.97 2348.07 1672.59 2351.84 1673.37 2355.99 1674.3 2360.14 1675.22 2363.11 1676.19 2364.9 1677.2 2366.69 1678.21 2368.14 1679.36 2369.25 1680.66 2370.37 1681.95 2371.2 1683.41 2371.75 1685.06 2372.3 1686.7 2372.58 1688.52 2372.58 1690.51 2372.58 1695.78 2370.44 1700.16 2366.17 1703.63 2361.9 1707.1 2356.24 1708.84 2349.2 1708.84 2342.38 1708.84 2335.21 1707.14 2327.72 1703.75L2327.72 1694.59 2328.24 1694.59C2334.42 1699.86 2341.43 1702.5 2349.28 1702.5 2354.12 1702.5 2357.91 1701.51 2360.67 1699.53 2363.42 1697.55 2364.8 1694.92 2364.8 1691.64 2364.8 1689.11 2364.22 1687.12 2363.05 1685.68 2361.88 1684.24 2359.84 1683.12 2356.94 1682.31L2343.4 1679.57C2338.37 1678.52 2334.56 1676.61 2331.97 1673.85 2329.38 1671.09 2328.08 1667.51 2328.08 1663.09 2328.08 1658.08 2330.09 1653.95 2334.13 1650.7 2338.16 1647.44 2343.41 1645.81 2349.89 1645.81ZM1771.22 1645.81C1777.65 1645.81 1784.34 1647.63 1791.3 1651.26L1791.3 1660.1 1790.73 1660.1C1784.42 1654.8 1777.75 1652.15 1770.74 1652.15 1764.34 1652.15 1759.28 1654.38 1755.54 1658.83 1751.81 1663.29 1749.94 1669.47 1749.94 1677.39 1749.94 1685.25 1751.84 1691.39 1755.64 1695.82 1759.45 1700.25 1764.51 1702.46 1770.82 1702.46 1774.23 1702.46 1777.49 1701.91 1780.58 1700.82 1783.67 1699.73 1787.05 1697.6 1790.73 1694.42L1791.3 1694.42 1791.3 1703.31C1786.14 1705.76 1782.13 1707.29 1779.27 1707.91 1776.4 1708.53 1773.71 1708.84 1771.18 1708.84 1762.1 1708.84 1754.99 1706.09 1749.84 1700.6 1744.69 1695.11 1742.12 1687.37 1742.12 1677.39 1742.12 1667.59 1744.73 1659.88 1749.96 1654.25 1755.19 1648.62 1762.28 1645.81 1771.22 1645.81ZM2511.87 1645.61 2519.9 1645.61 2519.9 1653 2511.87 1653ZM2040.64 1645.61 2048.66 1645.61 2048.66 1653 2040.64 1653ZM2684.02 1644.2 2693.21 1644.2 2682.33 1667.01 2677.25 1667.01ZM2668.3 1644.2 2677.49 1644.2 2666.61 1667.01 2661.53 1667.01ZM1727.38 1644.2 1732.46 1644.2 1725.69 1667.01 1716.5 1667.01ZM1711.66 1644.2 1716.74 1644.2 1709.97 1667.01 1700.78 1667.01ZM2402.05 1529.63 2577.15 1529.63 2577.15 1541.94 2479.74 1541.94C2469.83 1559.47 2459.66 1575.62 2449.22 1590.37 2490.57 1588.52 2521.06 1586.44 2540.68 1584.12 2531.24 1572.61 2523.6 1564.07 2517.79 1558.51L2530.18 1551.66C2535.73 1556.76 2543.11 1564.58 2552.33 1575.14 2561.54 1585.69 2568.39 1594.11 2572.89 1600.4L2558.52 1607.45C2556.34 1604.14 2553.3 1599.97 2549.4 1594.94 2536.72 1596.59 2514.11 1598.53 2481.57 1600.75 2449.04 1602.96 2423.85 1604.44 2406.01 1605.16L2403.93 1591.86C2411 1591.73 2420.35 1591.47 2431.98 1591.07 2442.22 1576.78 2452.06 1560.4 2461.51 1541.94L2402.05 1541.94ZM2201.49 1504.81 2291.76 1504.81 2291.76 1517.02 2255.79 1517.02 2255.79 1581.54C2278.45 1579.03 2293.68 1577.07 2301.47 1575.68L2301.97 1588.59C2296.09 1589.91 2280.73 1591.98 2255.89 1594.79 2231.05 1597.6 2211.56 1599.61 2197.42 1600.8L2194.95 1587.3C2205.65 1586.57 2220.68 1585.21 2240.03 1583.23L2240.03 1517.02 2201.49 1517.02ZM2436.63 1487.14 2543.66 1487.14 2543.66 1499.35 2436.63 1499.35ZM1756.7 1444.46 1850.94 1444.46 1850.94 1460.54 1775.14 1460.54 1775.14 1505.21 1842.42 1505.21 1842.42 1521.29 1775.14 1521.29 1775.14 1594.05 1756.7 1594.05ZM1921.12 1441.78C1937.77 1441.78 1954.41 1445.45 1971.06 1452.8L1971.06 1474.54 1969.68 1474.54C1955.93 1463.09 1939.75 1457.37 1921.12 1457.37 1910.81 1457.37 1902.51 1459.65 1896.2 1464.21 1889.89 1468.78 1886.73 1474.77 1886.73 1482.18 1886.73 1494.56 1893.94 1502.53 1908.34 1506.1 1916.66 1507.62 1925.93 1509.53 1936.13 1511.81 1946.34 1514.09 1953.64 1516.48 1958.03 1518.96 1962.42 1521.44 1965.99 1524.27 1968.73 1527.44 1971.48 1530.62 1973.52 1534.23 1974.88 1538.26 1976.23 1542.3 1976.91 1546.77 1976.91 1551.66 1976.91 1564.63 1971.66 1575.39 1961.15 1583.92 1950.65 1592.46 1936.74 1596.73 1919.44 1596.73 1902.66 1596.73 1885.05 1592.56 1866.62 1584.22L1866.62 1561.69 1867.91 1561.69C1883.1 1574.66 1900.34 1581.14 1919.63 1581.14 1931.52 1581.14 1940.86 1578.71 1947.63 1573.85 1954.4 1568.98 1957.78 1562.52 1957.78 1554.44 1957.78 1548.22 1956.35 1543.34 1953.47 1539.8 1950.6 1536.26 1945.6 1533.5 1938.46 1531.51L1905.17 1524.76C1892.81 1522.18 1883.45 1517.5 1877.07 1510.72 1870.7 1503.94 1867.51 1495.12 1867.51 1484.27 1867.51 1471.96 1872.47 1461.8 1882.37 1453.79 1892.28 1445.79 1905.2 1441.78 1921.12 1441.78ZM1681.55 1441.78C1697.33 1441.78 1713.78 1446.25 1730.89 1455.18L1730.89 1476.92 1729.51 1476.92C1713.98 1463.88 1697.6 1457.37 1680.36 1457.37 1664.63 1457.37 1652.18 1462.84 1643 1473.79 1633.82 1484.75 1629.22 1499.95 1629.22 1519.4 1629.22 1538.73 1633.9 1553.83 1643.25 1564.72 1652.59 1575.6 1665.03 1581.04 1680.55 1581.04 1688.94 1581.04 1696.94 1579.7 1704.53 1577.02 1712.13 1574.34 1720.46 1569.1 1729.51 1561.29L1730.89 1561.29 1730.89 1583.13C1718.21 1589.15 1708.35 1592.92 1701.31 1594.44 1694.28 1595.97 1687.66 1596.73 1681.45 1596.73 1659.12 1596.73 1641.63 1589.98 1628.98 1576.48 1616.33 1562.98 1610 1543.95 1610 1519.4 1610 1495.32 1616.42 1476.36 1629.27 1462.53 1642.12 1448.7 1659.55 1441.78 1681.55 1441.78ZM2340.42 1427.49C2346.1 1433.11 2354.45 1441.75 2365.49 1453.4L2352.8 1462.53C2351.02 1460.08 2342.83 1451.01 2328.23 1435.33ZM2107.25 1426.6 2123.2 1426.6 2123.2 1459.55 2169.18 1459.55 2169.18 1472.06 2123.2 1472.06 2123.2 1506 2174.73 1506 2174.73 1518.31 2126.28 1518.31C2134.6 1532.34 2144.67 1545.34 2156.5 1557.32 2168.32 1569.3 2177.74 1577.9 2184.74 1583.13L2174.73 1594.15C2155.11 1579.06 2137.8 1559.97 2122.81 1536.87L2122.81 1607.05 2107.55 1607.05 2107.55 1538.96C2090.17 1563.51 2071.61 1581.97 2051.86 1594.34L2044.33 1585.01C2055.09 1577.34 2065.83 1567.58 2076.53 1555.73 2087.23 1543.89 2096.32 1531.41 2103.78 1518.31L2057.6 1518.31 2057.6 1506 2107.25 1506 2107.25 1472.06 2075.94 1472.06C2071.64 1481.72 2067.48 1489.03 2063.45 1493.99L2052.25 1487.84C2056.68 1480.69 2060.99 1471.71 2065.18 1460.89 2069.38 1450.07 2072.17 1440.23 2073.56 1431.36L2088.92 1433.44C2087.33 1440.92 2084.69 1449.62 2080.99 1459.55L2107.25 1459.55ZM2719.15 1426.4 2734.9 1426.4 2734.9 1484.07 2782.96 1484.07 2782.96 1496.47 2734.9 1496.47 2734.9 1588.59 2790 1588.59 2790 1601 2661.67 1601 2661.67 1588.59 2719.15 1588.59 2719.15 1496.47 2676.34 1496.47 2676.34 1484.07 2719.15 1484.07ZM2018.66 1426.4 2033.72 1426.4 2033.72 1463.72 2052.95 1463.72 2052.95 1476.42 2033.72 1476.42 2033.72 1495.08C2040.99 1505.34 2048.59 1513.75 2056.51 1520.3L2047.99 1531.31C2042.51 1525.62 2037.75 1519.93 2033.72 1514.24L2033.72 1607.45 2018.66 1607.45 2018.46 1515.53C2011.26 1533.13 2002.84 1548.22 1993.19 1560.8L1983.88 1554.14C1990.22 1545.48 1996.79 1533.27 2003.6 1517.52 2010.4 1501.77 2015.13 1488.07 2017.77 1476.42L1990.22 1476.42 1990.22 1463.72 2018.66 1463.72ZM2478.06 1426.2 2498.96 1426.2C2509.47 1439.3 2523.31 1452.19 2540.48 1464.86 2557.66 1477.53 2574.31 1487.04 2590.43 1493.4L2580.52 1505.41C2565.98 1499.25 2550 1489.72 2532.56 1476.82 2515.12 1463.92 2500.62 1450.42 2489.05 1436.32 2479.28 1449.62 2465.34 1463.07 2447.24 1476.67 2429.14 1490.27 2412.49 1500.35 2397.29 1506.9L2389.86 1496.47C2402.41 1491.18 2418.35 1481.3 2437.68 1466.85 2457 1452.39 2470.46 1438.84 2478.06 1426.2ZM2298.8 1426.2 2314.75 1426.2 2314.75 1463.32 2379.95 1463.32 2379.95 1476.03 2314.85 1476.03C2315.18 1494.03 2317.01 1510.72 2320.35 1526.1 2323.69 1541.49 2329.28 1555.48 2337.15 1568.09 2345.01 1580.7 2351.38 1587 2356.27 1587 2360.5 1587 2362.94 1583.53 2363.6 1576.58L2364.99 1564.37C2365.39 1560 2365.68 1555.77 2365.88 1551.66L2378.76 1553.95C2378.76 1567.84 2377.87 1579.99 2376.09 1590.37 2374.31 1600.76 2369.22 1605.96 2360.83 1605.96 2355.81 1605.96 2351.35 1604.68 2347.45 1602.14 2343.55 1599.59 2338.38 1594.54 2331.94 1587 2325.5 1579.46 2319.72 1570.08 2314.6 1558.86 2309.48 1547.64 2305.63 1534.56 2303.06 1519.6 2300.48 1504.65 2299.03 1490.12 2298.7 1476.03L2192.87 1476.03 2192.87 1463.32 2298.6 1463.32ZM2631.45 1426 2646.12 1426 2646.12 1453.99 2671.98 1453.99 2676.74 1459.35C2670.46 1476.09 2660.06 1492.74 2645.52 1509.28L2645.52 1510.07C2653.52 1517.29 2663.52 1524.43 2675.55 1531.51L2669.11 1545.21C2660.72 1539.19 2652.85 1532.7 2645.52 1525.76L2645.52 1606.65 2630.16 1606.65 2630.16 1524.96C2620.52 1533.9 2610.87 1541.34 2601.23 1547.3L2594.59 1537.37C2608.53 1527.97 2621.51 1516.56 2633.53 1503.12 2645.56 1489.69 2653.68 1477.32 2657.91 1466L2602.22 1466 2602.22 1453.99 2631.45 1453.99Z" fill="#000000" fill-rule="evenodd" fill-opacity="1"/></g></g></svg>